HIERARCHY
ROOT Hips
{
	OFFSET 0.00000 0.00000 0.00000
	CHANNELS 6 Xposition Yposition Zposition Zrotation Yrotation Xrotation 
	JOINT LHipJoint
	{
		OFFSET 0 0 0
		CHANNELS 3 Zrotation Yrotation Xrotation
		JOINT LeftHip
		{
			OFFSET 1.84395 -1.68683 0.74144
			CHANNELS 3 Zrotation Yrotation Xrotation
			JOINT LeftKnee
			{
				OFFSET 2.27037 -6.23779 0.00000
				CHANNELS 3 Zrotation Yrotation Xrotation
				JOINT LeftAnkle
				{
					OFFSET 2.56918 -7.05877 0.00000
					CHANNELS 3 Zrotation Yrotation Xrotation
					JOINT LeftToe
					{
						OFFSET 0.22276 -0.61202 1.71784
						CHANNELS 3 Zrotation Yrotation Xrotation
						End Site
						{
							OFFSET 0.00000 -0.00000 0.91613
						}
					}
				}
			}
		}
	}
	JOINT RHipJoint
	{
		OFFSET 0 0 0
		CHANNELS 3 Zrotation Yrotation Xrotation
		JOINT RightHip
		{
			OFFSET -1.76833 -1.68684 0.74144
			CHANNELS 3 Zrotation Yrotation Xrotation
			JOINT RightKnee
			{
				OFFSET -2.49360 -6.85110 0.00000
				CHANNELS 3 Zrotation Yrotation Xrotation
				JOINT RightAnkle
				{
					OFFSET -2.55538 -7.02085 0.00000
					CHANNELS 3 Zrotation Yrotation Xrotation
					JOINT RightToe
					{
						OFFSET -0.21516 -0.59115 1.68050
						CHANNELS 3 Zrotation Yrotation Xrotation
						End Site
						{
							OFFSET -0.00000 -0.00000 0.89604
						}
					}
				}
			}
		}
	}
	JOINT lowerback
	{
		OFFSET 0 0 0
		CHANNELS 3 Zrotation Yrotation Xrotation
		JOINT Chest
		{
			OFFSET 0.06382 1.72312 -0.19613
			CHANNELS 3 Zrotation Yrotation Xrotation
			JOINT Chest2
			{
				OFFSET -0.00055 1.73507 0.23859
				CHANNELS 3 Zrotation Yrotation Xrotation
				JOINT lowerneck
				{
					OFFSET 0 0 0
					CHANNELS 3 Zrotation Yrotation Xrotation
					JOINT Neck
					{
						OFFSET 0.03638 1.65562 0.09633
						CHANNELS 3 Zrotation Yrotation Xrotation
						JOINT Head
						{
							OFFSET 0.06388 1.62807 -0.32386
							CHANNELS 3 Zrotation Yrotation Xrotation
							End Site
							{
								OFFSET 0.00995 1.67644 -0.12021
							}
						}
					}
				}
				JOINT LeftCollar
				{
					OFFSET 0 0 0
					CHANNELS 3 Zrotation Yrotation Xrotation
					JOINT LeftShoulder
					{
						OFFSET 3.09648 1.42991 0.28122
CHANNELS 3 Zrotation Xrotation Yrotation
						JOINT LeftElbow
						{
OFFSET 0 -5.118780 -0.000000
CHANNELS 3 Zrotation Xrotation Yrotation
							JOINT LeftWrist
							{
OFFSET 0 -3.599710 0.000000
CHANNELS 3 Zrotation Xrotation Yrotation
								JOINT lhand
								{
									OFFSET 0 0 0
CHANNELS 3 Zrotation Xrotation Yrotation
									JOINT LFingers
									{
OFFSET 0 -0.628770 0.000000
CHANNELS 3 Zrotation Xrotation Yrotation
										End Site
										{
OFFSET 0 -0.506930 0.000000
										}
									}
								}
								JOINT LThumb
								{
OFFSET 0 0.000000 0.000000
CHANNELS 3 Zrotation Xrotation Yrotation
									End Site
									{
OFFSET 0 -0.514670 0.514670
									}
								}
							}
						}
					}
				}
				JOINT RightCollar
				{
					OFFSET 0 0 0
					CHANNELS 3 Zrotation Yrotation Xrotation
					JOINT RightShoulder
					{
						OFFSET -3.33565 1.14597 0.05047
CHANNELS 3 Zrotation Xrotation Yrotation
						JOINT RightElbow
						{
OFFSET 0 -5.490200 0.000000
CHANNELS 3 Zrotation Xrotation Yrotation
							JOINT RightWrist
							{
OFFSET 0 -3.206590 -0.000000
CHANNELS 3 Zrotation Xrotation Yrotation
								JOINT rhand
								{
									OFFSET 0 0 0
CHANNELS 3 Zrotation Xrotation Yrotation
									JOINT RFingers
									{
OFFSET 0 -0.691880 0.000000
CHANNELS 3 Zrotation Xrotation Yrotation
										End Site
										{
OFFSET 0 -0.557810 0.000000
										}
									}
								}
								JOINT RThumb
								{
OFFSET 0 0.000000 0.000000
CHANNELS 3 Zrotation Xrotation Yrotation
									End Site
									{
OFFSET 0 -0.566330 0.566330
									}
								}
							}
						}
					}
				}
			}
		}
	}
}
MOTION
Frames: 11
Frame Time: .0083333
0.2161 16.8442 7.9471 -4.5326 15.7757 72.9340 0.0000 0.0000 0.0000 -36.3282 -11.5822 -90.4921 0.0586 1.5621 4.2971 -3.3121 -34.3450 31.8856 0.9731 6.2800 17.5990 0.0000 0.0000 0.0000 -13.1616 26.3789 -75.2878 -0.0099 -0.6422 1.7647 4.9202 -35.8659 -18.7112 -0.0008 -0.1818 0.4995 13.6840 -0.1265 34.9398 0.5938 4.4105 8.0565 -8.0462 1.8753 -7.4979 -4.4679 -12.4196 -7.2979 26.7117 -12.9016 -28.5284 9.6635 -8.5907 -4.9131 -0.0000 0.0000 0.0000 46.2268 1.359 -62.212 129.6157 -53.1493 93.5186 64.1103 -75.9943 32.083 0.0 0.0 0.0 -7.1250 0.0 0.0 16.9536 -23.2494 23.0074 -0.0000 0.0000 0.0000 -139.5786 -35.5675 -129.7497 -16.2681 -25.8829 -3.7623 -25.0416 4.3735 49.8692 0.0 0.0 0.0 7.1250 0.0 -0.0 45.7539 79.7729 -37.9279
0.2227 16.8505 7.9546 -4.6417 16.1154 72.6316 0.0000 0.0000 0.0000 -35.7092 -11.4044 -90.3481 0.0644 1.6376 4.5052 -3.3789 -34.4013 31.5458 0.9381 6.1694 17.2766 0.0000 0.0000 0.0000 -12.5936 26.5948 -74.8727 -0.0092 -0.6197 1.7029 4.9808 -36.0398 -18.7307 -0.0004 -0.1235 0.3394 14.3048 -0.6373 35.1915 0.3641 4.0147 8.1146 -8.4744 1.6961 -7.5342 -4.9428 -12.4241 -8.0598 27.4676 -12.9062 -27.5854 9.8262 -8.5022 -4.3537 0.0000 0.0000 0.0000 46.4145 1.681 -61.4573 129.7240 -53.1062 93.6053 64.1003 -75.9918 32.071 0.0 0.0 0.0 -7.1250 0.0 0.0 16.9529 -23.2279 23.0034 0.0000 0.0000 0.0000 -139.2723 -35.7863 -132.1615 -15.9001 -25.385 -3.603 -28.1264 8.1378 49.9664 0.0 0.0 0.0 7.1250 0.0 -0.0 43.6453 81.1811 -37.1966
0.2252 16.8577 7.9679 -4.6348 16.0272 72.5428 0.0000 0.0000 0.0000 -35.5503 -11.2884 -90.1989 0.0659 1.6560 4.5559 -3.3695 -34.2907 31.3143 0.9303 6.1442 17.2034 0.0000 0.0000 0.0000 -12.6356 26.6511 -74.7600 -0.0093 -0.6227 1.7113 5.0214 -36.1547 -18.7372 -0.0002 -0.0937 0.2575 14.4122 -0.7306 35.1834 0.3694 3.9398 8.1041 -8.4969 1.6600 -7.5489 -4.1602 -12.5926 -8.4450 26.8730 -13.2776 -27.7283 9.4654 -8.7155 -4.4224 0.0000 0.0000 0.0000 46.1816 1.7122 -61.3101 129.7628 -53.0907 93.6363 64.1308 -75.8726 31.9863 0.0 0.0 0.0 -7.1250 0.0 0.0 17.0011 -23.1591 23.0634 0.0000 0.0000 0.0000 -139.1753 -35.8362 -133.9469 -15.4831 -24.8147 -3.4261 -28.2886 9.8028 50.388 0.0 0.0 0.0 7.1250 0.0 -0.0 45.9435 81.4718 -39.4721
0.2238 16.8668 7.9882 -4.4417 15.4394 72.6492 0.0000 0.0000 0.0000 -35.9674 -11.2242 -89.9293 0.0608 1.5910 4.3767 -3.3221 -34.0723 31.0745 0.9419 6.1815 17.3119 0.0000 0.0000 0.0000 -13.3643 26.4906 -74.9066 -0.0102 -0.6524 1.7927 5.0303 -36.1901 -18.8859 -0.0010 -0.2020 0.5550 13.8396 -0.3909 34.9237 0.4989 4.1397 8.0130 -8.1375 1.7470 -7.5751 -4.3053 -12.8136 -7.9277 26.7211 -13.5781 -28.1030 9.4891 -8.8960 -4.5832 0.0000 0.0000 0.0000 45.7548 1.4541 -61.7264 129.6198 -53.1477 93.5219 64.3869 -76.0334 32.0943 0.0 0.0 0.0 -7.1250 0.0 0.0 17.0926 -23.4941 23.2438 0.0000 0.0000 0.0000 -138.9719 -35.7171 -134.8497 -14.9853 -24.1256 -3.2199 -26.5847 9.8234 49.6114 0.0 0.0 0.0 7.1250 0.0 -0.0 43.1401 80.3037 -36.0712
0.2175 16.8775 8.0158 -4.1249 14.3650 72.8677 0.0000 0.0000 0.0000 -36.9305 -11.1509 -89.5396 0.0507 1.4533 3.9969 -3.2929 -33.8737 30.7526 0.9504 6.2084 17.3904 0.0000 0.0000 0.0000 -14.7343 26.1654 -75.2954 -0.0127 -0.7273 1.9987 5.0154 -36.1702 -19.1794 -0.0050 -0.4571 1.2559 12.8127 -0.2433 34.6995 0.1491 3.9002 8.0929 -7.9113 1.6613 -7.5303 -4.0751 -12.8216 -8.3185 26.7272 -13.6073 -28.0608 9.4196 -8.9127 -4.5239 -0.0000 0.0000 0.0000 45.7268 1.3081 -61.2666 129.5405 -53.1791 93.4585 64.1798 -75.4216 31.9071 0.0 0.0 0.0 -7.1250 0.0 0.0 17.0567 -23.1119 23.1371 -0.0000 0.0000 0.0000 -139.1545 -36.1217 -136.3054 -14.7902 -23.853 -3.1406 -25.3136 9.8512 48.9613 0.0 0.0 0.0 7.1250 0.0 -0.0 41.2941 79.3766 -33.7631
0.2148 16.8863 8.0298 -4.1784 14.2216 72.6299 0.0000 0.0000 0.0000 -36.8176 -10.8148 -89.2816 0.0499 1.4418 3.9654 -3.2712 -33.7308 30.5269 0.9598 6.2382 17.4772 0.0000 0.0000 0.0000 -14.7866 26.2922 -75.1255 -0.0140 -0.7635 2.0983 5.0265 -36.2136 -19.3363 -0.0081 -0.5813 1.5974 12.7510 -0.0634 34.7244 0.3141 4.1235 8.0062 -7.7818 1.7502 -7.6064 -4.8745 -12.9245 -7.8006 27.1532 -13.6332 -28.2446 9.7319 -8.9177 -4.5319 -0.0000 -0.0000 0.0000 45.276 1.093 -61.6269 129.3523 -53.2534 93.3077 64.2798 -75.3044 31.9344 0.0 0.0 0.0 -7.1250 0.0 0.0 17.0981 -23.2263 23.2137 -0.0000 -0.0000 0.0000 -139.3996 -36.5649 -136.701 -14.6355 -23.6358 -3.0783 -24.6861 10.6789 48.6766 0.0 0.0 0.0 7.1250 0.0 -0.0 40.6961 78.9367 -32.9204
0.2206 16.8933 8.0229 -4.7164 15.4360 71.7992 0.0000 0.0000 0.0000 -35.1477 -10.1976 -89.2181 0.0631 1.6206 4.4583 -3.2571 -33.6568 30.4325 0.9654 6.2559 17.5289 0.0000 0.0000 0.0000 -12.9128 27.0132 -74.1026 -0.0120 -0.7088 1.9479 5.1048 -36.4132 -19.0972 -0.0021 -0.2929 0.8048 14.3560 -0.6312 35.2431 0.3356 4.0406 8.1282 -8.5402 1.7092 -7.5258 -5.2548 -12.9022 -8.5714 28.0355 -13.5182 -27.6268 9.9625 -8.8084 -4.0852 -0.0000 -0.0000 0.0000 45.3743 1.0191 -61.1216 129.1704 -53.3247 93.1619 64.4427 -75.6551 32.1114 0.0 0.0 0.0 -7.1250 0.0 0.0 17.1150 -23.5601 23.2856 -0.0000 -0.0000 0.0000 -140.0217 -37.3715 -137.362 -14.5819 -23.5605 -3.0569 -32.2568 18.7602 52.4109 0.0 0.0 0.0 7.1250 0.0 -0.0 60.0938 84.0462 -54.7799
0.2158 16.9015 8.0360 -4.8147 15.2792 71.6108 0.0000 0.0000 0.0000 -35.0092 -9.8284 -89.0307 0.0612 1.5968 4.3925 -3.2067 -33.4866 30.3597 0.9801 6.3019 17.6630 0.0000 0.0000 0.0000 -13.0208 27.1377 -74.0559 -0.0141 -0.7655 2.1039 5.0824 -36.3704 -19.3525 -0.0047 -0.4424 1.2156 14.5053 -0.5700 35.3308 0.3356 4.1788 8.0820 -8.6660 1.7639 -7.5645 -5.5715 -13.1903 -8.0935 27.4390 -14.0062 -27.9820 9.8382 -9.0229 -4.2354 -0.0000 -0.0000 0.0000 45.1061 0.6986 -61.2716 128.9724 -53.4016 93.003 64.4385 -75.6838 32.1153 0.0 0.0 0.0 -7.1250 0.0 0.0 17.1114 -23.5609 23.2804 -0.0000 -0.0000 0.0000 -140.5753 -38.1384 -135.7029 -14.7173 -23.7508 -3.1112 -28.9493 14.0223 52.0952 0.0 0.0 0.0 7.1250 0.0 -0.0 56.9593 82.4626 -50.3799
0.2070 16.9077 8.0492 -4.9599 15.0819 71.4418 0.0000 0.0000 0.0000 -34.8789 -9.4145 -88.9037 0.0587 1.5632 4.2999 -3.1118 -33.2096 30.3519 1.0146 6.4085 17.9743 0.0000 0.0000 0.0000 -13.1833 27.3037 -74.0776 -0.0164 -0.8273 2.2737 5.0133 -36.2171 -19.8090 -0.0158 -0.8122 2.2322 14.4705 -0.6639 35.3490 0.0412 4.0102 8.2102 -8.9071 1.7084 -7.4534 -5.7907 -13.0549 -9.2767 28.8449 -13.6682 -27.0903 10.1825 -8.8139 -3.6247 -0.0000 -0.0000 0.0000 45.2924 0.6047 -60.6585 128.8865 -53.4348 92.9341 64.4317 -75.6428 32.073 0.0 0.0 0.0 -7.1250 0.0 0.0 17.1240 -23.5083 23.2914 -0.0000 -0.0000 0.0000 -141.6929 -39.218 -135.6073 -14.8896 -23.9921 -3.1809 -27.7391 11.7157 51.0912 0.0 0.0 0.0 7.1250 0.0 -0.0 50.5720 81.5498 -43.7048
0.1970 16.9134 8.0619 -5.1662 14.9858 71.2493 0.0000 0.0000 0.0000 -34.6179 -8.9791 -88.8246 0.0576 1.5490 4.2607 -3.0831 -33.0758 30.2156 0.9963 6.3523 17.8102 0.0000 0.0000 0.0000 -13.1779 27.5655 -74.0110 -0.0175 -0.8547 2.3492 4.9673 -36.1117 -20.0486 -0.0266 -1.0536 2.8964 14.4485 -0.4688 35.2995 0.1160 4.2265 8.2737 -8.8834 1.8172 -7.3223 -6.3315 -13.0916 -9.3216 29.2413 -13.6340 -27.0671 10.3927 -8.7673 -3.5121 0.0000 0.0000 0.0000 44.9714 0.2641 -60.652 128.6762 -53.5157 92.765 64.2487 -75.2562 32.0296 0.0 0.0 0.0 -7.1250 0.0 0.0 17.0457 -23.306 23.149 0.0000 0.0000 0.0000 -142.9383 -40.0279 -134.9308 -15.0043 -24.1521 -3.2277 -26.503 10.3337 50.3838 0.0 0.0 0.0 7.1250 0.0 -0.0 47.2475 80.6747 -39.9847
0.1777 16.9208 8.0908 -4.9845 13.9422 71.5516 0.0000 0.0000 0.0000 -35.4602 -8.7962 -88.6281 0.0465 1.3924 3.8291 -3.1183 -33.0576 29.8838 0.9360 6.1627 17.2572 0.0000 0.0000 0.0000 -14.5155 27.4660 -74.5338 -0.0205 -0.9253 2.5432 4.9353 -36.0370 -20.1932 -0.0343 -1.1963 3.2891 13.2807 0.0556 34.9114 0.0149 4.3945 8.2905 -8.4550 1.9101 -7.2361 -6.4418 -13.2569 -9.3160 29.5531 -13.8201 -27.0911 10.4921 -8.8810 -3.4375 -0.0000 -0.0000 0.0000 44.714 -0.0309 -60.6762 128.4878 -53.5875 92.6135 64.1486 -74.8539 31.9585 0.0 0.0 0.0 -7.1250 0.0 0.0 17.0209 -23.143 23.0898 -0.0000 -0.0000 0.0000 -144.2421 -40.929 -133.5972 -15.2671 -24.5169 -3.336 -25.82 8.8645 49.9225 0.0 0.0 0.0 7.1250 0.0 -0.0 45.3680 80.1384 -37.8881
